<svg height="598.467" width="1312.217" xml:space="preserve" xmlns="http://www.w3.org/2000/svg">
  <defs>
    <clipPath id="a" clipPathUnits="userSpaceOnUse">
      <path d="M0 768h1024V0H0Z"/>
    </clipPath>
    <clipPath id="b" clipPathUnits="userSpaceOnUse">
      <path d="M0 768h1024V0H0Z"/>
    </clipPath>
    <clipPath id="c" clipPathUnits="userSpaceOnUse">
      <path d="M0 768h1024V0H0Z"/>
    </clipPath>
    <clipPath id="f" clipPathUnits="userSpaceOnUse">
      <path d="M0 768h1024V0H0Z"/>
    </clipPath>
    <clipPath id="g" clipPathUnits="userSpaceOnUse">
      <path d="M0 768h1024V0H0Z"/>
    </clipPath>
    <clipPath id="h" clipPathUnits="userSpaceOnUse">
      <path d="M0 768h1024V0H0Z"/>
    </clipPath>
    <clipPath id="j" clipPathUnits="userSpaceOnUse">
      <path d="M0 768h1024V0H0Z"/>
    </clipPath>
    <clipPath id="l" clipPathUnits="userSpaceOnUse">
      <path d="M0 768h1024V0H0Z"/>
    </clipPath>
    <clipPath id="n" clipPathUnits="userSpaceOnUse">
      <path d="M0 768h1024V0H0Z"/>
    </clipPath>
    <clipPath id="p" clipPathUnits="userSpaceOnUse">
      <path d="M0 768h1024V0H0Z"/>
    </clipPath>
    <clipPath id="q" clipPathUnits="userSpaceOnUse">
      <path d="M0 768h1024V0H0Z"/>
    </clipPath>
    <clipPath id="r" clipPathUnits="userSpaceOnUse">
      <path d="M0 768h1024V0H0Z"/>
    </clipPath>
    <clipPath id="t" clipPathUnits="userSpaceOnUse">
      <path d="M0 768h1024V0H0Z"/>
    </clipPath>
    <clipPath id="v" clipPathUnits="userSpaceOnUse">
      <path d="M0 768h1024V0H0Z"/>
    </clipPath>
    <clipPath id="x" clipPathUnits="userSpaceOnUse">
      <path d="M0 768h1024V0H0Z"/>
    </clipPath>
    <clipPath id="z" clipPathUnits="userSpaceOnUse">
      <path d="M0 768h1024V0H0Z"/>
    </clipPath>
    <radialGradient id="i" spreadMethod="pad" gradientTransform="matrix(29.51025 0 0 -29.51025 799.589 280.922)" gradientUnits="userSpaceOnUse" r="1" cy="0" cx="0" fy="0" fx="0">
      <stop offset="0" style="stop-opacity:1;stop-color:#b0abad"/>
      <stop offset="1" style="stop-opacity:1;stop-color:#575254"/>
    </radialGradient>
    <radialGradient id="k" spreadMethod="pad" gradientTransform="matrix(20.8413 0 0 -20.8413 799.588 280.923)" gradientUnits="userSpaceOnUse" r="1" cy="0" cx="0" fy="0" fx="0">
      <stop offset="0" style="stop-opacity:1;stop-color:#b0abad"/>
      <stop offset="1" style="stop-opacity:1;stop-color:#575254"/>
    </radialGradient>
    <radialGradient id="m" spreadMethod="pad" gradientTransform="matrix(19.64844 0 0 -19.64844 799.588 280.922)" gradientUnits="userSpaceOnUse" r="1" cy="0" cx="0" fy="0" fx="0">
      <stop offset="0" style="stop-opacity:1;stop-color:#fff"/>
      <stop offset=".005" style="stop-opacity:1;stop-color:#fff"/>
      <stop offset="1" style="stop-opacity:1;stop-color:#b0abad"/>
    </radialGradient>
    <radialGradient id="s" spreadMethod="pad" gradientTransform="matrix(29.51025 0 0 -29.51025 209.49 279)" gradientUnits="userSpaceOnUse" r="1" cy="0" cx="0" fy="0" fx="0">
      <stop offset="0" style="stop-opacity:1;stop-color:#b0abad"/>
      <stop offset="1" style="stop-opacity:1;stop-color:#575254"/>
    </radialGradient>
    <radialGradient id="u" spreadMethod="pad" gradientTransform="matrix(20.84107 0 0 -20.84107 209.49 279.001)" gradientUnits="userSpaceOnUse" r="1" cy="0" cx="0" fy="0" fx="0">
      <stop offset="0" style="stop-opacity:1;stop-color:#b0abad"/>
      <stop offset="1" style="stop-opacity:1;stop-color:#575254"/>
    </radialGradient>
    <radialGradient id="w" spreadMethod="pad" gradientTransform="matrix(19.6482 0 0 -19.6482 209.49 279)" gradientUnits="userSpaceOnUse" r="1" cy="0" cx="0" fy="0" fx="0">
      <stop offset="0" style="stop-opacity:1;stop-color:#fff"/>
      <stop offset=".005" style="stop-opacity:1;stop-color:#fff"/>
      <stop offset="1" style="stop-opacity:1;stop-color:#b0abad"/>
    </radialGradient>
    <linearGradient id="d" spreadMethod="pad" gradientTransform="matrix(18.06934 0 0 -18.06934 30.463 286.752)" gradientUnits="userSpaceOnUse" y2="0" x2="1" y1="0" x1="0">
      <stop offset="0" style="stop-opacity:1;stop-color:#fff"/>
      <stop offset=".578" style="stop-opacity:1;stop-color:#231f20"/>
      <stop offset="1" style="stop-opacity:1;stop-color:#231f20"/>
    </linearGradient>
    <linearGradient id="e" spreadMethod="pad" gradientTransform="matrix(23.75 0 0 -23.75 81.25 293.75)" gradientUnits="userSpaceOnUse" y2="0" x2="1" y1="0" x1="0">
      <stop offset="0" style="stop-opacity:1;stop-color:#231f20"/>
      <stop offset=".524" style="stop-opacity:1;stop-color:#fff"/>
      <stop offset="1" style="stop-opacity:1;stop-color:#fff"/>
    </linearGradient>
    <linearGradient id="o" spreadMethod="pad" gradientTransform="matrix(12.3291 0 0 -12.3291 819.396 282.316)" gradientUnits="userSpaceOnUse" y2="0" x2="1" y1="0" x1="0">
      <stop offset="0" style="stop-opacity:1;stop-color:#4a0000"/>
      <stop offset=".005" style="stop-opacity:1;stop-color:#4a0000"/>
      <stop offset="1" style="stop-opacity:1;stop-color:#ec1c24"/>
    </linearGradient>
    <linearGradient id="y" spreadMethod="pad" gradientTransform="matrix(12.3291 0 0 -12.3291 229.298 280.395)" gradientUnits="userSpaceOnUse" y2="0" x2="1" y1="0" x1="0">
      <stop offset="0" style="stop-opacity:1;stop-color:#4a0000"/>
      <stop offset=".005" style="stop-opacity:1;stop-color:#4a0000"/>
      <stop offset="1" style="stop-opacity:1;stop-color:#ec1c24"/>
    </linearGradient>
    <linearGradient id="A" spreadMethod="pad" gradientTransform="scale(28.52004 -28.52004) rotate(-30 -16.038 -19.168)" gradientUnits="userSpaceOnUse" y2="0" x2="1" y1="0" x1="0">
      <stop offset="0" style="stop-opacity:1;stop-color:#fff"/>
      <stop offset="1" style="stop-opacity:1;stop-color:#bcbec0"/>
    </linearGradient>
  </defs>
  <g style="display:inline">
    <g clip-path="url(#a)" transform="matrix(1.33333 0 0 -1.33333 -28.767 875.016)">
      <path style="fill:#f2f2f2;fill-opacity:1;fill-rule:nonzero;stroke:none" d="M0 0s69 11.25 88.5 4c5-3.25 5.75-12 6-13l-.25 1s-11.25.25-9-12.25-87.5 5-87.5 5z" transform="translate(884.5 468.25)"/>
      <path style="fill:none;stroke:#231f20;stroke-width:1;stroke-linecap:butt;stroke-linejoin:miter;stroke-miterlimit:4;stroke-dasharray:none;stroke-opacity:1" d="M0 0s69 11.25 88.5 4c5-3.25 5.75-12 6-13l-.25 1s-11.25.25-9-12.25-87.5 5-87.5 5z" transform="translate(884.5 468.25)"/>
      <path style="fill:#000;fill-opacity:1;fill-rule:nonzero;stroke:none" d="m0 0 34.333-1-6.5-14.75-28 .5-13 9 5.75 5z" transform="translate(279.667 436.5)"/>
      <path style="fill:#666;fill-opacity:1;fill-rule:nonzero;stroke:none" d="m0 0 10.333 13s134.667 81 143 82c8.334 1 11.334-8 11.334-8l-123-77.667-44-25z" transform="translate(297.666 423)"/>
      <path style="fill:#666;stroke:#231f20;stroke-width:1;stroke-linecap:butt;stroke-linejoin:miter;stroke-miterlimit:4;stroke-dasharray:none;stroke-opacity:1" d="m0 0 10.333 13s134.667 81 143 82c8.334 1 11.334-8 11.334-8l-123-77.667-44-25z" transform="translate(297.666 423)"/>
      <path style="fill:#666;fill-opacity:1;fill-rule:nonzero;stroke:none" d="M0 0s-53.5 38.833-133.5 64.167c-69 5.333-1.667-12.334-1.667-12.334L-14.5-8.833Z" transform="translate(905.5 458.5)"/>
      <path style="fill:#666;stroke:#231f20;stroke-width:1;stroke-linecap:butt;stroke-linejoin:miter;stroke-miterlimit:4;stroke-dasharray:none;stroke-opacity:1" d="M0 0s-53.5 38.833-133.5 64.167c-69 5.333-1.667-12.334-1.667-12.334L-14.5-8.833Z" transform="translate(905.5 458.5)"/>
      <g style="display:inline">
        <path style="fill:#b3b3b3;fill-opacity:1;fill-rule:nonzero;stroke:none" d="M0 0s-.75 25.25 15.375 30.125 55.25 4.75 55.25 4.75L57.75 1.375l-31.5-15-26.625 2.5L.125-.5" transform="translate(41.125 345.125)"/>
      </g>
      <g style="display:inline">
        <path style="fill:#000;fill-opacity:1;fill-rule:nonzero;stroke:none" d="M0 0h182l-10 105-141 11-48-54Z" transform="translate(124 256)"/>
      </g>
      <g style="display:inline">
        <path style="fill:#000;fill-opacity:1;fill-rule:nonzero;stroke:none" d="m0 0 175 8 4 86-103 36L0 92Z" transform="translate(715 255)"/>
      </g>
      <g style="display:inline">
        <path style="fill:#ccc;fill-opacity:1;fill-rule:nonzero;stroke:none" d="m0 0 42 1.667L43 41-4.334 5.333Z" transform="translate(960.333 281.666)"/>
      </g>
    </g>
    <path d="M5794.8 343.1h384.3v923.2c0 84.9 48.8 119.2 131.1 119.2h654.6c82.2 0 131.1-34.3 131.1-119.2V343.1H7480v983.8c0 208.8-179 367-384.2 367H6179c-204.3 0-384.3-159.1-384.3-367V343.1Zm-1821.9 934.1h382.4c6.3 76.9 51.5 108.4 127.5 108.4h702.6c65.1 0 101.2-55.9 101.2-116.6 0-81.3-59.6-123.9-136.5-123.9h-765.9c-252.3 0-424.1-123-424.1-388.8 0-138.3 54.3-284.8 177.3-359 76.8-47.1 170.8-54.3 259.5-54.3h902.3c195.4 0 352.6 138.3 350.8 337.2v71.4h-395c-3.6-61.5-39.8-101.2-104.8-101.2h-666.4c-67.8 0-124.8 34.3-124.8 109.4 0 74.2 57.9 102.2 123.9 102.2h816.5c264 0 400.6 176.4 400.6 433.2 0 245.9-114 398.6-369 398.6h-975.6c-222.5 0-379.8-89.4-381.6-326.3zm9095-934.1h385.2v923.2c0 84.9 48.9 119.2 131.1 119.2h654.5c82.2 0 131.1-34.3 131.1-119.2V343.1h384.2v983.8c0 207.8-179.9 367-384.2 367h-916.9c-205.2 0-385.2-158.2-385.2-367zM9826.4 1427.2l-151 266.6h-426.7L9982 343.1h501.8l733.4 1350.7h-426.9l-151-266.6zm406-742.3-242.3 450.3h485.6zM7626.7 343.1h1184.5c254 0 442.1 88.6 442.1 373.4 0 123-48.7 230.6-157.2 291.2 119.2 63.3 187.1 180.7 187.1 316.3 0 190.8-122.2 369.8-327.3 369.8H7626.7ZM8020 1385.5h730.6c71.3 0 137.4-38.8 137.4-116.6 0-76.9-66.9-116.6-137.4-116.6H8020Zm0-512.5h730.6c65.9 0 107.6-46.1 107.6-110.3 0-64.2-40.7-112-107.6-112H8020Zm3270.3-529.9h1287.5c256.9 0 380.8 209.8 380.8 444 0 151.8-55.1 293.8-194.4 366.3 135.7 65.9 198 169.9 198 321.9V1694h-384.4v-218.6c0-128.4-71.3-174.5-195.3-174.5h-696V1694h-396.1zm396.1 650.1h720.6c93 0 155.5-83.2 155.5-170.9 0-112.1-83.2-171.8-190.8-171.8h-685.3zM1738.7 5c425.9 0 882.5 86.8 1245.9 317.4 236 151 455.7 379.8 455.7 678 0 348.2-297.4 601.4-582.3 749.6-339 175.5-739.6 245-1119.4 245-425.8 0-881.5-85.8-1245-317.3-236-151-456.6-379.8-456.6-677.3C37 650.6 333.6 398.3 619.3 250 959.3 74.6 1359 5 1738.7 5Zm-3.6 105.8c-396 0-822.8 74.1-1166.4 281.1C352.6 521.2 139.2 724.7 139.2 995c0 317.5 289.3 539.7 547.9 667.3 320.1 156.3 694.4 217.1 1048 217.1 396.8 0 823.7-74.3 1167.3-281.3 215.2-130.2 429.5-332.7 429.5-603 0-318.2-288.5-540.7-547.9-667.2-320.2-156.6-694.5-217.1-1048.9-217.1ZM240.5 775.3l651.9-111.2 196.2-425.9L1284 664.1l651.8 111.2L1284 887.5l-195.4 426.8-196.2-426.8Zm1433.1 324.5 287.5-50.5 85.9-192.6 85.9 192.6 287.6 50.5-287.6 49.7-85.9 192.7-85.9-192.7zm595-513.5 287.5-49.7 85.9-193.4 85.9 193.4 287.5 49.7-287.5 50.6-85.9 192.7-86-192.7zm-307.5 911.5 286.6-49.7 85.9-193.5 86.8 193.5 287.5 49.7-287.5 50.6-86.8 192.7-85.9-192.7zm-883.3 69.6 287.5-49.7 86.8-193.7 85.8 193.7 287.6 49.7-287.6 50.6-85.8 192.7-86.8-192.7zm1445.8-475.5 286.6-50.7 85.9-192.6 86.8 192.6 287.5 50.7-287.5 49.7L2896 1334l-85.9-192.5z" style="fill:#ececec" transform="translate(87.565 -.29) scale(.05797)"/>
    <g clip-path="url(#b)" transform="matrix(1.33333 0 0 -1.33333 -28.767 875.016)">
      <g style="display:inline">
        <path style="display:inline;fill:#fff;fill-opacity:1;fill-rule:nonzero;stroke:none" d="M0 0c-10.083 4.333-69.938 34.938-69.938 34.938-8.69 4.456-24.416 11.75-46.75 22 .251 1.916.334 3 .625 5.437-26.625 7.313-66.875 14.063-131.125 16.813-128.5 5.5-197.333-21.5-197.333-21.5l10-5.833-118.667-73s-23.833-19-52.5-12.167c-28.666 6.833-7.333 11-7.333 11l-37.667-3.5s-84.632-5.037-88.375-7.626c-7.792-5.39-13.242-11.041-17.883-13.229-3.636-1.714-9.733-3.851-24.742-7.145-55.166-18.834-51-23.167-58-31.834 7.167 4 46.5 4.167 46.5 4.167s14.667.333 4-7.667c-10-14.5-29.666-20.666-29.666-20.666s-24-8.334-25.334-4.167c-1.333 4.167-9.333 2.333-9.333 2.333-12.5-1.167-11.833-11.666-13.167-19.666-3.666-7.833-1.666-48.834-1.666-48.834s.833-7-1.834-12.333c-4.5-12.167 28-14.5 29-15.333.885-.736 62.24-2.515 76.428-2.917l2.906-.083s-7.167 55.333 16.166 83.833c23.334 28.5 90.167 41.333 124 7 33.834-34.334 30-89.834 30-89.834l417.167 2.834s-.5 52.5 12 71.333c36.701 55.297 92.667 46.833 128.667 20.667 36-26.167 27.666-83.5 27.666-85.334 0-1.833 57.001 13.334 81.167 19.334 24.167 6 25.167 12.833 25.167 12.833s2.833 7.333 8.333 16.5 3.834 48.667 3.834 48.667-5.5 20.666-12.5 23.166-7.5 11-7.5 11 0 .667.5 13.5c1 28.5-9 36.5-19 51C65.423 7.853 13.75 6.75.25 7.25-2.289 7.344 8.938.938 8.938.938S11.333.25 0 0" transform="translate(892.688 458.813)"/>
      </g>
      <g style="display:inline">
        <path style="fill:none;stroke:#231f20;stroke-width:1;stroke-linecap:butt;stroke-linejoin:miter;stroke-miterlimit:4;stroke-dasharray:none;stroke-opacity:1" d="M0 0c-10.083 4.333-69.938 34.938-69.938 34.938-8.69 4.456-24.416 11.75-46.75 22 .251 1.916.334 3 .625 5.437-26.625 7.313-66.875 14.063-131.125 16.813-128.5 5.5-197.333-21.5-197.333-21.5l10-5.833-118.667-73s-23.833-19-52.5-12.167c-28.666 6.833-7.333 11-7.333 11l-37.667-3.5s-84.632-5.037-88.375-7.626c-7.792-5.39-13.242-11.041-17.883-13.229-3.636-1.714-9.733-3.851-24.742-7.145-55.166-18.834-51-23.167-58-31.834 7.167 4 46.5 4.167 46.5 4.167s14.667.333 4-7.667c-10-14.5-29.666-20.666-29.666-20.666s-24-8.334-25.334-4.167c-1.333 4.167-9.333 2.333-9.333 2.333-12.5-1.167-11.833-11.666-13.167-19.666-3.666-7.833-1.666-48.834-1.666-48.834s.833-7-1.834-12.333c-4.5-12.167 28-14.5 29-15.333.885-.736 62.24-2.515 76.428-2.917l2.906-.083s-7.167 55.333 16.166 83.833c23.334 28.5 90.167 41.333 124 7 33.834-34.334 30-89.834 30-89.834l417.167 2.834s-.5 52.5 12 71.333c36.701 55.297 92.667 46.833 128.667 20.667 36-26.167 27.666-83.5 27.666-85.334 0-1.833 57.001 13.334 81.167 19.334 24.167 6 25.167 12.833 25.167 12.833s2.833 7.333 8.333 16.5 3.834 48.667 3.834 48.667-5.5 20.666-12.5 23.166-7.5 11-7.5 11 0 .667.5 13.5c1 28.5-9 36.5-19 51C65.423 7.853 13.75 6.75.25 7.25-2.289 7.344 8.938.938 8.938.938S11.333.25 0 0Z" transform="translate(892.688 458.813)"/>
      </g>
    </g>
    <path style="fill:none;stroke:#000;stroke-width:1;stroke-linecap:butt;stroke-linejoin:miter;stroke-miterlimit:4;stroke-dasharray:none;stroke-opacity:1" d="m0 0 627.334 36" transform="matrix(1.33333 0 0 -1.33333 359.233 359.905)"/>
    <g clip-path="url(#c)" transform="matrix(1.33333 0 0 -1.33333 -28.767 875.016)">
      <path style="fill:none;stroke:#000;stroke-width:1;stroke-linecap:butt;stroke-linejoin:miter;stroke-miterlimit:4;stroke-dasharray:none;stroke-opacity:1" d="M0 0s57.333 43.333 145.333 52.667c88 9.333 72 8 72 8" transform="translate(704.334 356.333)"/>
      <path style="fill:none;stroke:#231f20;stroke-width:1;stroke-linecap:butt;stroke-linejoin:miter;stroke-miterlimit:4;stroke-dasharray:none;stroke-opacity:1" d="M0 0s58 2.5 101.5 31.5 148 21.5 148 21.5" transform="translate(29.5 336.5)"/>
      <path style="fill:#191919;fill-opacity:1;fill-rule:nonzero;stroke:none" d="M0 0s95.75 92 193 100.5 150.394 5.544 191.25-.25C418.333 95.417 427.667 81.417 432 77c4.333-4.417 33.417-33.5 35.5-35.5 2.083-2 10.25-12.5-9-13.25z" transform="translate(335 416.25)"/>
      <path style="fill:#191919;fill-opacity:1;fill-rule:nonzero;stroke:none" d="m0 0 22.333 89L44 89.667 34.667 1.333Z" transform="translate(547 431.334)"/>
      <path style="fill:#666;fill-opacity:1;fill-rule:nonzero;stroke:none" d="m0 0-1 21s30.211 29.024 75.25 50c33.865 15.772 78.631 25 111.25 25-11.5-59-18-83.5-18-83.5z" transform="translate(380.5 419)"/>
      <path style="fill:#666;fill-opacity:1;fill-rule:nonzero;stroke:none" d="m0 0-11.25-81.5 149.25 9 4.25 32.25-19.25 35S128.25.75 0 0" transform="translate(591.75 516.25)"/>
      <path style="fill:#666;fill-opacity:1;fill-rule:nonzero;stroke:none" d="M0 0s23.75-1.5 8.25 14-34.75 38.5-43 37.75-3.75-6.25-.5-11.5S-15.75 5.5-15.75 5.5-13.5-.5 0 0" transform="translate(775.5 451.5)"/>
      <path style="fill:none;stroke:#231f20;stroke-width:1;stroke-linecap:butt;stroke-linejoin:miter;stroke-miterlimit:4;stroke-dasharray:none;stroke-opacity:1" d="m0 0 83.833 14.667L44.667 12.5" transform="translate(135.667 411.166)"/>
      <path style="fill:none;stroke:#231f20;stroke-width:1;stroke-linecap:butt;stroke-linejoin:miter;stroke-miterlimit:4;stroke-dasharray:none;stroke-opacity:1" d="M0 0s24 42.5 80 42.5c0 0 54.5 8.5 81-39" transform="translate(129 326.5)"/>
      <path style="fill:none;stroke:#231f20;stroke-width:1;stroke-linecap:butt;stroke-linejoin:miter;stroke-miterlimit:4;stroke-dasharray:none;stroke-opacity:1" d="M0 0s24 42.5 80 42.5c0 0 54.5 8.5 81-39" transform="translate(721 331)"/>
      <path style="fill:none;stroke:#000;stroke-width:1;stroke-linecap:butt;stroke-linejoin:miter;stroke-miterlimit:4;stroke-dasharray:none;stroke-opacity:1" d="M0 0s-17.5-69-3-159" transform="translate(564.5 433.5)"/>
      <path style="fill:none;stroke:#000;stroke-width:1;stroke-linecap:butt;stroke-linejoin:miter;stroke-miterlimit:4;stroke-dasharray:none;stroke-opacity:1" d="M0 0s-11.896-3.012-16.5-35.75C-23.25-83.75-5-143.751-5-143.751l108.667.667L351.75-141s14.5-2.75 22.25 23.5 26.75 51.25 44 68 30 38 19.25 54.25-17 25.5-17 25.5L383 98.75" transform="translate(335 416.25)"/>
      <path style="fill:#b3b3b3;fill-opacity:1;fill-rule:nonzero;stroke:none" d="M0 0c0-5.247-4.253-10.5-9.5-10.5h-7A9.5 9.5 0 0 0-26-1a9.5 9.5 0 0 0 9.5 9.5h7A9.5 9.5 0 0 0 0-1Z" transform="translate(534.5 394.75)"/>
      <path style="fill:none;stroke:#231f20;stroke-width:1;stroke-linecap:butt;stroke-linejoin:miter;stroke-miterlimit:4;stroke-dasharray:none;stroke-opacity:1" d="M0 0c0-5.247-4.253-10.5-9.5-10.5h-7A9.5 9.5 0 0 0-26-1a9.5 9.5 0 0 0 9.5 9.5h7A9.5 9.5 0 0 0 0-1Z" transform="translate(534.5 394.75)"/>
      <path style="fill:#fff;fill-opacity:1;fill-rule:nonzero;stroke:none" d="M0 0a3.626 3.626 0 0 0-3.548-3.701l-46.989-.996a3.626 3.626 0 0 0-.154 7.249l46.991.995A3.625 3.625 0 0 0 0 0" transform="translate(550.494 393.2)"/>
      <path style="fill:none;stroke:#000;stroke-width:1;stroke-linecap:butt;stroke-linejoin:miter;stroke-miterlimit:4;stroke-dasharray:none;stroke-opacity:1" d="M0 0a3.626 3.626 0 0 0-3.548-3.701l-46.989-.996a3.626 3.626 0 0 0-.154 7.249l46.991.995A3.625 3.625 0 0 0 0 0Z" transform="translate(550.494 393.2)"/>
      <path style="fill:#b3b3b3;fill-opacity:1;fill-rule:nonzero;stroke:none" d="M0 0c0-5.247-4.253-10.5-9.5-10.5h-7a9.5 9.5 0 0 0 0 19h7A9.5 9.5 0 0 0 0-1Z" transform="translate(741.667 407.75)"/>
      <path style="fill:none;stroke:#231f20;stroke-width:1;stroke-linecap:butt;stroke-linejoin:miter;stroke-miterlimit:4;stroke-dasharray:none;stroke-opacity:1" d="M0 0c0-5.247-4.253-10.5-9.5-10.5h-7a9.5 9.5 0 0 0 0 19h7A9.5 9.5 0 0 0 0-1Z" transform="translate(741.667 407.75)"/>
      <path style="fill:#fff;fill-opacity:1;fill-rule:nonzero;stroke:none" d="M0 0a3.626 3.626 0 0 0-3.548-3.701l-46.989-.996a3.625 3.625 0 0 0-.154 7.249l46.991.995A3.625 3.625 0 0 0 0 0" transform="translate(757.661 406.2)"/>
      <path style="fill:none;stroke:#000;stroke-width:1;stroke-linecap:butt;stroke-linejoin:miter;stroke-miterlimit:4;stroke-dasharray:none;stroke-opacity:1" d="M0 0a3.626 3.626 0 0 0-3.548-3.701l-46.989-.996a3.625 3.625 0 0 0-.154 7.249l46.991.995A3.625 3.625 0 0 0 0 0Z" transform="translate(757.661 406.2)"/>
      <g style="display:inline">
        <path style="fill:#333;fill-opacity:1;fill-rule:nonzero;stroke:none" d="M0 0c-.67 10.646-3.368 21.937-7.405 24.359 0 0-6.666-5.666-13-6.666s-34.667-5.667-34.667-5.667-18.333-1.667-6-10.667c12.333-9 40.667-28.666 40.667-28.666s1.666 4.999 7.333 5.333c5.667.333 12.541-.245 12.541-.245S.712-11.329 0 0" transform="translate(985.656 413.594)"/>
      </g>
      <g style="display:inline">
        <path style="fill:#b3b3b3;fill-opacity:1;fill-rule:nonzero;stroke:none" d="m0 0-14.313.219v22.713L1 22.872Z" transform="translate(52.625 275.125)"/>
      </g>
      <g style="display:inline">
        <path style="fill:#fff;fill-opacity:1;fill-rule:nonzero;stroke:none" d="M0 0c0-6.075-3.731-11-8.333-11-4.603 0-8.334 4.925-8.334 11s3.731 11 8.334 11C-3.731 11 0 6.075 0 0" transform="translate(47.666 286.666)"/>
      </g>
      <g style="display:inline">
        <path style="fill:none;stroke:#000;stroke-width:1;stroke-linecap:butt;stroke-linejoin:miter;stroke-miterlimit:4;stroke-dasharray:none;stroke-opacity:1" d="m0 0 25.75-2L24-35.25S26.75-49 1.5-37.5" transform="translate(28.5 313)"/>
      </g>
      <g style="display:inline">
        <path style="fill:#000;fill-opacity:1;fill-rule:nonzero;stroke:none" d="m0 0-1-14.25L-5.75-11-5.5-.25Z" transform="translate(54.25 308.5)"/>
      </g>
    </g>
    <path style="fill:url(#d);stroke:none" d="M38.195 297.925c-4.574-.55-7.734-5.176-7.732-10.577 0-.538.032-1.088.096-1.641.674-5.745 4.702-10.159 9.397-10.178.278.001.562.013.847.047 4.572.556 7.734 5.182 7.73 10.579 0 .539-.029 1.085-.094 1.639-.673 5.749-4.703 10.162-9.396 10.182-.281 0-.564-.017-.848-.051m-6.642-12.102c-.06.515-.09 1.026-.09 1.525.005 5.045 2.941 9.146 6.849 9.584.246.029.49.044.731.044 4.012.02 7.775-3.921 8.402-9.298.061-.513.088-1.021.088-1.523-.002-5.043-2.942-9.142-6.847-9.586a6.587 6.587 0 0 0-.73-.04h-.032c-4.002 0-7.748 3.935-8.371 9.294" transform="matrix(1.33333 0 0 -1.33333 -28.767 875.016)"/>
    <path style="fill:url(#e);stroke:none" d="M81.5 300.25 81.25 275l22.5-.25 1.25 38c-25.5-.25-23.5-12.5-23.5-12.5" transform="matrix(1.33333 0 0 -1.33333 -28.767 875.016)"/>
    <g clip-path="url(#f)" transform="matrix(1.33333 0 0 -1.33333 -28.767 875.016)">
      <path style="fill:none;stroke:#231f20;stroke-width:1;stroke-linecap:butt;stroke-linejoin:miter;stroke-miterlimit:4;stroke-dasharray:none;stroke-opacity:1" d="m0 0-22.5.25.25 25.25s-2 12.25 23.5 12.5" transform="translate(103.75 274.75)"/>
      <path style="fill:none;stroke:#000;stroke-width:1;stroke-linecap:butt;stroke-linejoin:miter;stroke-miterlimit:4;stroke-dasharray:none;stroke-opacity:1" d="M0 0s54.666 9.999 84 12.333" transform="translate(905.664 282.666)"/>
      <path style="fill:#fff;fill-opacity:1;fill-rule:nonzero;stroke:none" d="M0 0c0-6.627-2.373-12-9-12h-14c-6.627 0-11 3.373-11 10V.667c0 6.627 10.373 14 17 14h8c6.627 0 9-5.373 9-12z" transform="translate(401 436.668)"/>
      <path style="fill:none;stroke:#231f20;stroke-width:1;stroke-linecap:butt;stroke-linejoin:miter;stroke-miterlimit:4;stroke-dasharray:none;stroke-opacity:1" d="M0 0c0-6.627-2.373-12-9-12h-14c-6.627 0-11 3.373-11 10V.667c0 6.627 10.373 14 17 14h8c6.627 0 9-5.373 9-12z" transform="translate(401 436.668)"/>
    </g>
    <g clip-path="url(#g)" transform="matrix(1.33333 0 0 -1.33333 -28.767 875.016)">
      <path style="fill:#191919;fill-opacity:1;fill-rule:nonzero;stroke:none" d="M0 0c0-39.948-32.385-72.333-72.333-72.333S-144.666-39.948-144.666 0s32.385 72.333 72.333 72.333S0 39.948 0 0" transform="translate(872.335 281.667)"/>
    </g>
    <path style="fill:#b3b3b3;stroke:none" d="M748.335 281.667c0-28.535 23.131-51.667 51.667-51.667 28.535 0 51.667 23.132 51.667 51.667s-23.132 51.667-51.667 51.667c-28.536 0-51.667-23.132-51.667-51.667" transform="matrix(1.33333 0 0 -1.33333 -28.767 875.016)"/>
    <g clip-path="url(#h)" transform="matrix(1.33333 0 0 -1.33333 -28.767 875.016)">
      <path style="fill:#000;fill-opacity:1;fill-rule:nonzero;stroke:none" d="M0 0c0-23.011-18.653-41.667-41.667-41.667-23.014 0-41.667 18.656-41.667 41.667 0 23.011 18.653 41.667 41.667 41.667C-18.653 41.667 0 23.011 0 0" transform="translate(841.669 281.667)"/>
    </g>
    <path style="fill:url(#i);stroke:none" d="M770.079 280.921c0-16.298 13.212-29.51 29.509-29.51 16.298 0 29.511 13.212 29.511 29.51 0 16.299-13.213 29.511-29.511 29.511-16.297 0-29.509-13.212-29.509-29.511" transform="matrix(1.33333 0 0 -1.33333 -28.767 875.016)"/>
    <g clip-path="url(#j)" transform="matrix(1.33333 0 0 -1.33333 -28.767 875.016)">
      <path style="fill:none;stroke:#231f20;stroke-width:1;stroke-linecap:butt;stroke-linejoin:miter;stroke-miterlimit:4;stroke-dasharray:none;stroke-opacity:1" d="M0 0c0-16.299-13.213-29.511-29.511-29.511C-45.808-29.511-59.02-16.299-59.02 0s13.212 29.511 29.509 29.511C-13.213 29.511 0 16.299 0 0Z" transform="translate(829.099 280.922)"/>
    </g>
    <path style="fill:url(#k);stroke:none" d="M778.747 280.921c0-11.508 9.332-20.839 20.841-20.839 11.51 0 20.842 9.331 20.842 20.839 0 11.511-9.332 20.843-20.842 20.843-11.509 0-20.841-9.332-20.841-20.843" transform="matrix(1.33333 0 0 -1.33333 -28.767 875.016)"/>
    <g clip-path="url(#l)" transform="matrix(1.33333 0 0 -1.33333 -28.767 875.016)">
      <path style="fill:none;stroke:#000;stroke-width:.75;stroke-linecap:butt;stroke-linejoin:miter;stroke-miterlimit:4;stroke-dasharray:none;stroke-opacity:1" d="M0 0c0-11.509-9.332-20.84-20.842-20.84-11.509 0-20.841 9.331-20.841 20.84 0 11.511 9.332 20.842 20.841 20.842C-9.332 20.842 0 11.511 0 0Z" transform="translate(820.43 280.922)"/>
    </g>
    <path style="fill:url(#m);stroke:none" d="M779.939 280.921c0-10.851 8.797-19.646 19.649-19.646s19.65 8.795 19.65 19.646c0 10.854-8.798 19.649-19.65 19.649-10.852 0-19.649-8.795-19.649-19.649" transform="matrix(1.33333 0 0 -1.33333 -28.767 875.016)"/>
    <g clip-path="url(#n)" transform="matrix(1.33333 0 0 -1.33333 -28.767 875.016)">
      <path style="fill:none;stroke:#fdee27;stroke-width:1;stroke-linecap:round;stroke-linejoin:miter;stroke-miterlimit:4;stroke-dasharray:1,2;stroke-dashoffset:0;stroke-opacity:1" d="M0 0c0-10.852-8.797-19.647-19.649-19.647-10.853 0-19.649 8.795-19.649 19.647 0 10.853 8.796 19.648 19.649 19.648C-8.797 19.648 0 10.853 0 0Z" transform="translate(819.237 280.922)"/>
    </g>
    <path style="fill:url(#o);stroke:none" d="m820.827 260.162 7.319 5.093-.557 2.543s2.944 4.772 2.863 8.591a35.73 35.73 0 0 0 1.274 1.193l-1.513 12.012s-3.659 3.74-4.453 7.716c-4.139 4.136-6.363 7.161-6.363 7.161z" transform="matrix(1.33333 0 0 -1.33333 -28.767 875.016)"/>
    <g clip-path="url(#p)" transform="matrix(1.33333 0 0 -1.33333 -28.767 875.016)">
      <path style="fill:none;stroke:#000;stroke-width:1;stroke-linecap:butt;stroke-linejoin:miter;stroke-miterlimit:4;stroke-dasharray:none;stroke-opacity:1" d="m0 0 1.431-44.309 7.318 5.093-.557 2.543s2.944 4.773 2.863 8.591a34.715 34.715 0 0 0 1.274 1.193l-1.513 12.012s-3.659 3.74-4.453 7.717C2.225-3.024 0 0 0 0Z" transform="translate(819.396 304.47)"/>
      <path style="fill:#fff;fill-opacity:1;fill-rule:nonzero;stroke:#000;stroke-width:.5;stroke-linecap:butt;stroke-linejoin:miter;stroke-miterlimit:4;stroke-dasharray:none;stroke-opacity:1" d="M825.042 288.241h-4.217v10.18h4.217z"/>
      <path style="fill:#000;fill-opacity:1;fill-rule:nonzero;stroke:none" d="M822.02 294.445h1.829v-4.376h-1.829z"/>
      <path style="fill:#ffb81f;fill-opacity:1;fill-rule:nonzero;stroke:none" d="M823.93 295.16h-1.751v2.306h1.751z"/>
      <path style="fill:#fff;fill-opacity:1;fill-rule:nonzero;stroke:none" d="M0 0c-.055-.028-.147-.119-.219-.154-.015-.007-.042 0-.057-.008-.066-.028-.146-.09-.223-.137-.159-.093-.288-.173-.454-.273-.08-.05-.168-.117-.226-.129-.14-.031-.278.022-.419 0v.733C-1.073.013-.472.07 0 0" transform="translate(825.097 279.777)"/>
      <path style="fill:#fff;fill-opacity:1;fill-rule:nonzero;stroke:none" d="M0 0v-.711C-.573-.575-.942.083-.691.698c.083.211.298.46.529.558.166.067.398.103.623.056.147-.033.281-.127.401-.21.003-.006-.003-.006-.008-.008C.542.905.213.738-.104.523-.286.365-.203.054 0 0" transform="translate(824.265 277.224)"/>
      <path style="fill:#fff;fill-opacity:1;fill-rule:nonzero;stroke:none" d="M0 0c-.267-.173-.61-.371-.935-.564-.09-.055-.228-.168-.313-.187-.139-.027-.276.024-.411 0V0Z" transform="translate(825.158 276.32)"/>
      <path style="fill:#fff;fill-opacity:1;fill-rule:nonzero;stroke:none" d="M0 0h-.661c.058.378-.094.546-.467.492.31.208.632.357.943.564C.053.882-.006.406 0 0" transform="translate(825.507 278.584)"/>
      <path style="fill:#fff;fill-opacity:1;fill-rule:nonzero;stroke:none" d="M0 0h-.104" transform="translate(824.571 268.76)"/>
      <path style="fill:#fff;fill-opacity:1;fill-rule:nonzero;stroke:none" d="M0 0c.144-.146.283-.271.29-.54.012-.378-.309-.699-.652-.741-.389-.047-.938.035-1.379 0v.694h.927c.108 0 .229-.021.306 0 .093.021.189.16.178.266-.011.096-.105.123-.178.175h-1.233V.58h.644c.217 0 .537-.037.655.017.065.031.098.124.093.194-.012.252-.342.187-.617.191.413.271.823.491 1.233.743V.982H.104C.137.929.209.864.241.798.388.49.188.143 0 0" transform="translate(825.24 274.587)"/>
      <path style="fill:#fff;fill-opacity:1;fill-rule:nonzero;stroke:none" d="M0 0h-.879c.155-.379.029-.824-.178-1.071-.042-.048-.079-.107-.112-.137-.39-.347-1.159-.201-1.45.154-.203.246-.268.726-.066 1.054h-.143v.744h2.246C-.88.552-1.35.287-1.709.072c-.189-.11-.549-.276-.373-.594.071-.127.284-.207.446-.13.121.055.214.245.168.403-.021.078-.088.109-.12.178.398.233.798.461 1.218.71.104.061.165.132.347.105.01 0 .022 0 .023-.011z" transform="translate(826.32 272.313)"/>
      <path style="fill:#fff;fill-opacity:1;fill-rule:nonzero;stroke:none" d="M0 0h-.879c.182-.477-.032-1.035-.346-1.256-.415-.291-1.118-.137-1.393.202-.196.236-.271.74-.065 1.054h-.146v.742H-.58C-1.059.431-1.587.169-2.054-.151c-.175-.287.033-.57.324-.534.151.02.298.175.271.387-.012.099-.095.163-.129.225.397.235.798.464 1.217.71.104.061.166.133.347.105.01 0 .022 0 .024-.01z" transform="translate(826.328 281.38)"/>
      <path style="fill:#fff;fill-opacity:1;fill-rule:nonzero;stroke:none" d="M0 0v.24" transform="translate(822.54 285.256)"/>
      <path style="fill:#fff;fill-opacity:1;fill-rule:nonzero;stroke:none" d="M0 0c.515.047.949.436.952.999 0 .256-.1.445-.211.612-.2-.108-.389-.227-.587-.338.034-.086.124-.152.127-.265.02-.479-.779-.426-.659.079.043.189.294.278.45.371l.515.308c-.249.261-.711.285-1.015.159-.376-.154-.721-.544-.612-1.127C-.956.356-.579.057-.104 0" transform="translate(824.571 268.76)"/>
      <path style="fill:#fff;fill-opacity:1;fill-rule:nonzero;stroke:none" d="M0 0a1.809 1.809 0 0 0-1.178-1.174 1.83 1.83 0 0 0-.868-.043c-.821.158-1.474.918-1.411 1.895.011.183.063.372.129.531.191.468.684.922 1.274 1.049.337.071.67.031.983-.068-.313-.201-.621-.359-.929-.544-.099-.062-.211-.114-.313-.177-.382-.243-.634-.822-.418-1.371a1.123 1.123 0 0 1 1.457-.615c.43.171.814.666.67 1.322.174.133.401.249.58.347C.092.846.104.331 0 0m.225 1.82c-.522-.303-1.046-.608-1.571-.907.123-.059.193-.177.242-.309.15-.894-1.166-.912-1.104-.095.008.095.047.136.065.235.132.181.393.298.589.419.508.307 1.035.63 1.537.926-.013.065-.076.106-.119.152-.313.323-.765.531-1.468.531s-1.088-.207-1.421-.45c-.517-.378-.944-.82-.944-1.732 0-.914.346-1.444.704-1.789a2.338 2.338 0 0 1 1.573-.654c.688-.022 1.223.259 1.612.611.366.335.684.858.733 1.493A2.296 2.296 0 0 1 .225 1.82" transform="translate(826.53 284.933)"/>
      <path style="fill:#fff;fill-opacity:1;fill-rule:nonzero;stroke:none" d="M0 0c-.019.164-.002.362-.008.538C.251.517.214.046 0 0m.452.95C.174.751-.13.633-.402.427V-.742C.295-.79.729-.313.671.396A.995.995 0 0 1 .452.95" transform="translate(824.82 277.23)"/>
    </g>
    <path style="fill:#b3b3b3;stroke:none" d="m807.75 294.175 4.186-1.122 9.317 34.774-4.185 1.121zm-24.333 34.319 9.317-34.774 4.186 1.122-9.317 34.773zm-33.83-36.845 34.773-9.318 1.121 4.185-34.772 9.317zm6.699 17.026 31.177-18 2.165 3.753-31.175 18zm43.716-12.674h4.333v36h-4.333zm-51.319-16.947-.002-4.334h36l.002 4.334zm20.967-37.794 3.549-2.485 20.649 29.49-3.549 2.484z" transform="matrix(1.33333 0 0 -1.33333 -28.767 875.016)"/>
    <path style="fill:#b3b3b3;stroke:none" d="m758.185 254.383 2.787-3.319 27.576 23.14-2.784 3.319zm26.539-20.766 4.072-1.482 12.314 33.829-4.072 1.483zm21.606 33.665 20.649-29.489 3.549 2.484-20.65 29.49z" transform="matrix(1.33333 0 0 -1.33333 -28.767 875.016)"/>
    <path style="fill:#b3b3b3;stroke:none" d="m798.413 265.337 12.313-33.829 4.072 1.483-12.313 33.828zm13.326 7.148 27.578-23.141 2.784 3.319-27.577 23.141zm2.829 12.594 1.122-4.184 34.772 9.317-1.12 4.185z" transform="matrix(1.33333 0 0 -1.33333 -28.767 875.016)"/>
    <path style="fill:#b3b3b3;stroke:none" d="m814.809 277.124.001-4.334 36 .001-.001 4.333zm-4.325 14.386 2.166-3.752 31.178 17.999-2.167 3.752z" transform="matrix(1.33333 0 0 -1.33333 -28.767 875.016)"/>
    <path style="fill:#666;stroke:none" d="M782.335 281.667c0-9.757 7.909-17.667 17.667-17.667 9.758 0 17.667 7.91 17.667 17.667 0 9.757-7.909 17.667-17.667 17.667-9.758 0-17.667-7.91-17.667-17.667" transform="matrix(1.33333 0 0 -1.33333 -28.767 875.016)"/>
    <g clip-path="url(#q)" transform="matrix(1.33333 0 0 -1.33333 -28.767 875.016)">
      <path style="fill:#191919;fill-opacity:1;fill-rule:nonzero;stroke:none" d="M0 0c0-39.948-32.385-72.333-72.333-72.333S-144.666-39.948-144.666 0s32.385 72.333 72.333 72.333S0 39.948 0 0" transform="translate(282.236 279.745)"/>
    </g>
    <path style="fill:#b3b3b3;stroke:none" d="M158.236 279.745c0-28.535 23.132-51.667 51.667-51.667 28.536 0 51.668 23.132 51.668 51.667 0 28.536-23.132 51.667-51.668 51.667-28.535 0-51.667-23.131-51.667-51.667" transform="matrix(1.33333 0 0 -1.33333 -28.767 875.016)"/>
    <g clip-path="url(#r)" transform="matrix(1.33333 0 0 -1.33333 -28.767 875.016)">
      <path style="fill:#000;fill-opacity:1;fill-rule:nonzero;stroke:none" d="M0 0c0-23.011-18.653-41.667-41.667-41.667-23.014 0-41.667 18.656-41.667 41.667 0 23.011 18.653 41.667 41.667 41.667C-18.653 41.667 0 23.011 0 0" transform="translate(251.57 279.745)"/>
    </g>
    <path style="fill:url(#s);stroke:none" d="M179.98 279c0-16.299 13.212-29.511 29.509-29.511C225.787 249.489 239 262.701 239 279s-13.213 29.511-29.511 29.511c-16.297 0-29.509-13.212-29.509-29.511" transform="matrix(1.33333 0 0 -1.33333 -28.767 875.016)"/>
    <g clip-path="url(#t)" transform="matrix(1.33333 0 0 -1.33333 -28.767 875.016)">
      <path style="fill:none;stroke:#231f20;stroke-width:1;stroke-linecap:butt;stroke-linejoin:miter;stroke-miterlimit:4;stroke-dasharray:none;stroke-opacity:1" d="M0 0c0-16.299-13.213-29.511-29.511-29.511C-45.808-29.511-59.02-16.299-59.02 0s13.212 29.511 29.509 29.511C-13.213 29.511 0 16.299 0 0Z" transform="translate(239 279)"/>
    </g>
    <path style="fill:url(#u);stroke:none" d="M188.648 279c0-11.509 9.332-20.84 20.841-20.84 11.51 0 20.842 9.331 20.842 20.84 0 11.511-9.332 20.842-20.842 20.842-11.509 0-20.841-9.331-20.841-20.842" transform="matrix(1.33333 0 0 -1.33333 -28.767 875.016)"/>
    <g clip-path="url(#v)" transform="matrix(1.33333 0 0 -1.33333 -28.767 875.016)">
      <path style="fill:none;stroke:#000;stroke-width:.75;stroke-linecap:butt;stroke-linejoin:miter;stroke-miterlimit:4;stroke-dasharray:none;stroke-opacity:1" d="M0 0c0-11.509-9.332-20.84-20.842-20.84-11.509 0-20.841 9.331-20.841 20.84 0 11.511 9.332 20.842 20.841 20.842C-9.332 20.842 0 11.511 0 0Z" transform="translate(230.331 279)"/>
    </g>
    <path style="fill:url(#w);stroke:none" d="M189.841 279c0-10.851 8.795-19.648 19.648-19.648s19.65 8.797 19.65 19.648c0 10.852-8.797 19.649-19.65 19.649-10.853 0-19.648-8.797-19.648-19.649" transform="matrix(1.33333 0 0 -1.33333 -28.767 875.016)"/>
    <g clip-path="url(#x)" transform="matrix(1.33333 0 0 -1.33333 -28.767 875.016)">
      <path style="fill:none;stroke:#fdee27;stroke-width:1;stroke-linecap:round;stroke-linejoin:miter;stroke-miterlimit:4;stroke-dasharray:1,2;stroke-dashoffset:0;stroke-opacity:1" d="M0 0c0-10.852-8.797-19.647-19.649-19.647-10.853 0-19.649 8.795-19.649 19.647 0 10.853 8.796 19.648 19.649 19.648C-8.797 19.648 0 10.853 0 0Z" transform="translate(229.139 279)"/>
    </g>
    <path style="fill:url(#y);stroke:none" d="m230.729 258.241 7.318 5.092-.557 2.543s2.943 4.772 2.862 8.591a35.249 35.249 0 0 0 1.275 1.193l-1.512 12.011s-3.66 3.741-4.454 7.718c-4.139 4.136-6.363 7.159-6.363 7.159z" transform="matrix(1.33333 0 0 -1.33333 -28.767 875.016)"/>
    <g clip-path="url(#z)" transform="matrix(1.33333 0 0 -1.33333 -28.767 875.016)">
      <path style="fill:none;stroke:#000;stroke-width:1;stroke-linecap:butt;stroke-linejoin:miter;stroke-miterlimit:4;stroke-dasharray:none;stroke-opacity:1" d="m0 0 1.431-44.309 7.318 5.093-.557 2.543s2.944 4.773 2.863 8.591a34.715 34.715 0 0 0 1.274 1.193l-1.513 12.012s-3.659 3.74-4.453 7.717C2.225-3.024 0 0 0 0Z" transform="translate(229.298 302.549)"/>
      <path style="fill:#fff;fill-opacity:1;fill-rule:nonzero;stroke:#000;stroke-width:.5;stroke-linecap:butt;stroke-linejoin:miter;stroke-miterlimit:4;stroke-dasharray:none;stroke-opacity:1" d="M234.943 286.319h-4.217v10.18h4.217z"/>
      <path style="fill:#000;fill-opacity:1;fill-rule:nonzero;stroke:none" d="M231.921 292.523h1.829v-4.376h-1.829z"/>
      <path style="fill:#ffb81f;fill-opacity:1;fill-rule:nonzero;stroke:none" d="M233.831 293.238h-1.751v2.306h1.751z"/>
      <path style="fill:#fff;fill-opacity:1;fill-rule:nonzero;stroke:none" d="M0 0c-.055-.028-.147-.119-.219-.154-.015-.007-.042 0-.057-.008-.066-.028-.146-.09-.223-.137-.159-.093-.288-.173-.454-.273-.08-.05-.168-.117-.226-.129-.14-.031-.278.022-.419 0v.733C-1.073.013-.472.07 0 0" transform="translate(234.998 277.856)"/>
      <path style="fill:#fff;fill-opacity:1;fill-rule:nonzero;stroke:none" d="M0 0v-.711C-.573-.575-.942.083-.691.698c.083.211.298.46.529.558.166.067.398.103.623.056.147-.033.281-.127.401-.21.003-.006-.003-.006-.008-.008C.542.905.213.738-.104.523-.286.365-.203.054 0 0" transform="translate(234.166 275.302)"/>
      <path style="fill:#fff;fill-opacity:1;fill-rule:nonzero;stroke:none" d="M0 0c-.267-.173-.61-.371-.935-.564-.09-.055-.228-.168-.313-.187-.139-.027-.276.024-.411 0V0Z" transform="translate(235.06 274.398)"/>
      <path style="fill:#fff;fill-opacity:1;fill-rule:nonzero;stroke:none" d="M0 0h-.661c.058.378-.094.546-.467.492.31.208.632.357.943.564C.053.882-.006.406 0 0" transform="translate(235.408 276.662)"/>
      <path style="fill:#fff;fill-opacity:1;fill-rule:nonzero;stroke:none" d="M0 0h-.104" transform="translate(234.473 266.839)"/>
      <path style="fill:#fff;fill-opacity:1;fill-rule:nonzero;stroke:none" d="M0 0c.144-.146.283-.271.29-.54.012-.378-.309-.699-.652-.741-.389-.047-.938.035-1.379 0v.694h.927c.108 0 .229-.021.306 0 .093.021.189.16.178.266-.011.096-.105.123-.178.175h-1.233V.58h.644c.217 0 .537-.037.655.017.065.031.098.124.093.194-.012.252-.342.187-.617.191.413.271.823.491 1.233.743V.982H.104C.137.929.209.864.241.798.388.49.188.143 0 0" transform="translate(235.142 272.665)"/>
      <path style="fill:#fff;fill-opacity:1;fill-rule:nonzero;stroke:none" d="M0 0h-.879c.155-.379.029-.824-.178-1.071-.042-.048-.079-.107-.112-.137-.39-.347-1.159-.201-1.45.154-.203.246-.268.726-.066 1.054h-.143v.744h2.246C-.88.552-1.35.287-1.709.072c-.189-.11-.549-.276-.373-.594.071-.127.284-.207.446-.13.121.055.214.245.168.403-.021.078-.088.109-.12.178.398.233.798.461 1.218.71.104.061.165.132.347.105.01 0 .022 0 .023-.011z" transform="translate(236.222 270.392)"/>
      <path style="fill:#fff;fill-opacity:1;fill-rule:nonzero;stroke:none" d="M0 0h-.879c.182-.477-.032-1.035-.346-1.256-.415-.291-1.118-.137-1.393.202-.196.236-.271.74-.065 1.054h-.146v.742H-.58C-1.059.431-1.587.169-2.054-.151c-.175-.287.033-.57.324-.534.151.02.298.175.271.387-.012.099-.095.163-.129.225.397.235.798.464 1.217.71.104.061.166.133.347.105.01 0 .022 0 .024-.01z" transform="translate(236.23 279.458)"/>
      <path style="fill:#fff;fill-opacity:1;fill-rule:nonzero;stroke:none" d="M0 0v.24" transform="translate(232.441 283.334)"/>
      <path style="fill:#fff;fill-opacity:1;fill-rule:nonzero;stroke:none" d="M0 0c.515.047.949.436.952.999 0 .256-.1.445-.211.612-.2-.108-.389-.227-.587-.338.034-.086.124-.152.127-.265.02-.479-.779-.426-.659.079.043.189.294.278.45.371l.515.308c-.249.261-.711.285-1.015.159-.376-.154-.721-.544-.612-1.127C-.956.356-.579.057-.104 0" transform="translate(234.473 266.839)"/>
      <path style="fill:#fff;fill-opacity:1;fill-rule:nonzero;stroke:none" d="M0 0a1.809 1.809 0 0 0-1.178-1.174 1.83 1.83 0 0 0-.868-.043c-.821.158-1.474.918-1.411 1.895.011.183.063.372.129.531.191.468.684.922 1.274 1.049.337.071.67.031.983-.068-.313-.201-.621-.359-.929-.544-.099-.062-.211-.114-.313-.177-.382-.243-.634-.822-.418-1.371a1.123 1.123 0 0 1 1.457-.615c.43.171.814.666.67 1.322.174.133.401.249.58.347C.092.846.104.331 0 0m.225 1.82c-.522-.303-1.046-.608-1.571-.907.123-.059.193-.177.242-.309.15-.894-1.166-.912-1.104-.095.008.095.047.136.065.235.132.181.393.298.589.419.508.307 1.035.63 1.537.926-.013.065-.076.106-.119.152-.313.323-.765.531-1.468.531s-1.088-.207-1.421-.45c-.517-.378-.944-.82-.944-1.732 0-.914.346-1.444.704-1.789a2.338 2.338 0 0 1 1.573-.654c.688-.022 1.223.259 1.612.611.366.335.684.858.733 1.493A2.296 2.296 0 0 1 .225 1.82" transform="translate(236.43 283.01)"/>
      <path style="fill:#fff;fill-opacity:1;fill-rule:nonzero;stroke:none" d="M0 0c-.019.164-.002.362-.008.538C.251.517.214.046 0 0m.452.95C.174.751-.13.633-.402.427V-.742C.295-.79.729-.313.671.396A.995.995 0 0 1 .452.95" transform="translate(234.722 275.309)"/>
    </g>
    <path style="fill:url(#A);stroke:none" d="m217.652 292.253 4.185-1.121 9.317 34.773-4.186 1.122z" transform="matrix(1.33333 0 0 -1.33333 -28.767 875.016)"/>
    <path style="fill:#b3b3b3;stroke:none" d="m193.318 326.572 9.318-34.773 4.185 1.121-9.317 34.774zm-33.83-36.846 34.773-9.317 1.122 4.185-34.773 9.317zm6.7 17.027 31.177-18 2.165 3.753-31.177 18zm43.715-12.674h4.333v36h-4.333zm-51.319-16.947-.001-4.333h36l.001 4.333zm20.968-37.793 3.548-2.487 20.649 29.49-3.548 2.485z" transform="matrix(1.33333 0 0 -1.33333 -28.767 875.016)"/>
    <path style="fill:#b3b3b3;stroke:none" d="m168.087 252.461 2.786-3.318 27.577 23.139-2.785 3.32zm26.539-20.766 4.071-1.482 12.313 33.829-4.07 1.482zm21.605 33.666 20.649-29.49 3.55 2.484-20.65 29.489z" transform="matrix(1.33333 0 0 -1.33333 -28.767 875.016)"/>
    <path style="fill:#b3b3b3;stroke:none" d="m208.314 263.415 12.314-33.83 4.071 1.485-12.312 33.828zm13.326 7.148 27.578-23.141 2.785 3.319-27.577 23.141zm2.83 12.594 1.12-4.184 34.774 9.317-1.121 4.186z" transform="matrix(1.33333 0 0 -1.33333 -28.767 875.016)"/>
    <path style="fill:#b3b3b3;stroke:none" d="m224.71 275.202.001-4.334 36 .001-.001 4.333z" transform="matrix(1.33333 0 0 -1.33333 -28.767 875.016)"/>
    <g style="display:inline">
      <path style="fill:#b3b3b3;stroke:none" d="m220.386 289.588 2.165-3.753 31.179 18-2.167 3.752z" transform="matrix(1.33333 0 0 -1.33333 -28.767 875.016)"/>
    </g>
    <g style="display:inline">
      <path style="display:inline;fill:#666;stroke:none" d="M192.236 279.745c0-9.757 7.91-17.667 17.667-17.667 9.758 0 17.667 7.91 17.667 17.667 0 9.757-7.909 17.667-17.667 17.667-9.757 0-17.667-7.91-17.667-17.667" transform="matrix(1.33333 0 0 -1.33333 -28.767 875.016)"/>
    </g>
    <path style="fill:#333;stroke-width:30;stroke-linecap:round" d="M448.166 312.088c75.513 22.76 136.98 23.021 197.333 21.5 64.677-3.148 104.775-9.175 131.125-16.813l-.625-5.437c-106.3 20.866-220.747 17.785-317.832-5.083z" transform="matrix(1.33333 0 0 -1.33333 -28.767 602.467)"/>
    <g style="display:inline;fill:#333">
      <g style="fill:#333">
        <path style="display:inline;fill:#333;stroke:none" d="M192.236 279.745c0-9.757 7.91-17.667 17.667-17.667 9.758 0 17.667 7.91 17.667 17.667 0 9.757-7.909 17.667-17.667 17.667-9.757 0-17.667-7.91-17.667-17.667" transform="matrix(.64915 0 0 -.64915 114.845 683.62)"/>
      </g>
    </g>
    <g style="fill:#333">
      <path style="fill:#333;stroke:none" d="M782.335 281.667c0-9.757 7.909-17.667 17.667-17.667 9.758 0 17.667 7.91 17.667 17.667 0 9.757-7.909 17.667-17.667 17.667-9.758 0-17.667-7.91-17.667-17.667" transform="matrix(.64915 0 0 -.64915 518.583 682.304)"/>
    </g>
  </g>
</svg>